<svg width="50" height="50" viewBox="0 0 50 50" fill="none" xmlns="http://www.w3.org/2000/svg">
<path fill-rule="evenodd" clip-rule="evenodd" d="M25 0C38.7979 0 50 11.2021 50 25C50 38.7979 38.7979 50 25 50C11.2021 50 0 38.7979 0 25C0 11.2021 11.2021 0 25 0ZM25 2.08333C37.6479 2.08333 47.9167 12.3521 47.9167 25C47.9167 37.6479 37.6479 47.9167 25 47.9167C12.3521 47.9167 2.08333 37.6479 2.08333 25C2.08333 12.3521 12.3521 2.08333 25 2.08333ZM35.9312 18.75L25 32.1667L14.0354 18.75L12.5 20.1625L25 35.4167L37.5 20.1354L35.9312 18.75Z" fill="#495057"/>
</svg>
